<?xml version="1.0" encoding="UTF-8" standalone="no"?>
<svg
   xmlns:dc="http://purl.org/dc/elements/1.1/"
   xmlns:cc="http://creativecommons.org/ns#"
   xmlns:rdf="http://www.w3.org/1999/02/22-rdf-syntax-ns#"
   xmlns:svg="http://www.w3.org/2000/svg"
   xmlns="http://www.w3.org/2000/svg"
   xmlns:sodipodi="http://sodipodi.sourceforge.net/DTD/sodipodi-0.dtd"
   xmlns:inkscape="http://www.inkscape.org/namespaces/inkscape"
   width="24"
   height="24"
   viewBox="0 0 24 24"
   fill="none"
   stroke="currentColor"
   stroke-width="2"
   stroke-linecap="round"
   stroke-linejoin="round"
   class="feather feather-info"
   version="1.1"
   id="svg8"
   sodipodi:docname="escs_active.svg"
   inkscape:version="0.92.2pre0 (973e216, 2017-07-25)">
  <metadata
     id="metadata14">
    <rdf:RDF>
      <cc:Work
         rdf:about="">
        <dc:format>image/svg+xml</dc:format>
        <dc:type
           rdf:resource="http://purl.org/dc/dcmitype/StillImage" />
        <dc:title />
      </cc:Work>
    </rdf:RDF>
  </metadata>
  <defs
     id="defs12">
    <path
       style="fill:none;stroke:#000000;stroke-width:1px;stroke-linecap:butt;stroke-linejoin:miter;stroke-opacity:1"
       d="m 12.303041,159.96163 c 0,0 -4.6095028,18.94069 -1.718743,33.09456 2.90186,14.20821 10.239215,39.17355 20.192715,49.71974 14.44341,15.30345 36.950231,30.88032 55.293587,36.11995 25.47347,7.27629 96.8965,-8.17479 94.40919,-8.72753"
       id="path2997"
       inkscape:connector-curvature="0"
       sodipodi:nodetypes="csssc" />
    <inkscape:path-effect
       effect="spiro"
       id="path-effect4431"
       is_visible="true" />
  </defs>
  <sodipodi:namedview
     pagecolor="#ffffff"
     bordercolor="#666666"
     borderopacity="1"
     objecttolerance="10"
     gridtolerance="10"
     guidetolerance="10"
     inkscape:pageopacity="0"
     inkscape:pageshadow="2"
     inkscape:window-width="1364"
     inkscape:window-height="707"
     id="namedview10"
     showgrid="false"
     inkscape:snap-global="false"
     inkscape:zoom="13.906433"
     inkscape:cx="8.2233177"
     inkscape:cy="12.456553"
     inkscape:window-x="0"
     inkscape:window-y="0"
     inkscape:window-maximized="1"
     inkscape:current-layer="g3578-4-7" />
  <g
     id="g3578-4-7"
     transform="matrix(0.09354028,0,0,0.09092657,18.397251,-0.9550568)">
    <path
       style="fill:#d45500;fill-opacity:1;stroke:#d45500;stroke-opacity:1;stroke-width:6.33239664;stroke-miterlimit:4;stroke-dasharray:none"
       d="m -90.188318,211.93208 c -25.050032,-4.48096 -47.972522,-20.95099 -56.907422,-45.10575 -3.61951,-9.78503 -4.47973,-25.9941 -1.97661,-37.24514 2.45172,-11.02002 8.89933,-23.50013 14.7954,-30.36427 6.45139,-7.510636 9.76227,-10.955631 19.29493,-15.441728 0.43535,-0.204877 -10.80144,12.086536 -13.41564,15.330721 -18.46357,22.913067 -21.17064,54.753897 -5.30378,79.045057 9.06521,13.87828 25.32424,24.98216 40.943567,29.20009 4.3993,1.188 9.74964,1.88946 17.972455,2.12686 10.272544,0.29658 22.189989,-3.9422 21.962719,-3.57421 -2.603774,2.09911 -21.062557,8.94467 -37.365619,6.02837 z m 64.525582,-20.86235 c 16.7564528,-18.23106 22.1360651,-29.39427 22.1360651,-49.04928 0,-13.22628 -2.35044,-23.2464 -8.2100301,-35 -5.88481,-11.804198 -16.973667,-25.306991 -31.291725,-32.16934 -13.597081,-6.5168 -25.675065,-6.982613 -31.837649,-6.622133 -20.270506,1.185723 -22.751917,3.671787 -31.176695,5.849222 15.485506,-10.295908 33.926361,-10.631933 45.657971,-9.849446 11.73161,0.782487 35.003361,10.43833 48.030569,24.498903 16.2638031,17.386214 18.8908379,41.617644 16.3230504,63.782354 -1.2860696,11.10114 -10.6944733,28.25042 -18.5223814,35.79848 -3.604333,3.47548 -9.922265,12.9311 -40.931458,24.74067 -2.330442,0.88753 14.676899,-5.50122 29.822283,-21.97943 z"
       id="path3580-1-7"
       inkscape:connector-curvature="0"
       sodipodi:nodetypes="ssssssssscssssssczcssss" />
    <path
       style="fill:#d45500;fill-opacity:1;stroke:#d45500;stroke-opacity:1;stroke-width:6.33239664;stroke-miterlimit:4;stroke-dasharray:none"
       d="m 44.790261,215.10931 c -4.62104,-0.44671 -15.525356,-0.37527 -37.1516001,-5.4247 -17.9961889,-5.43787 -25.2687449,-9.16268 -34.8914749,-12.53157 -9.25851,-2.96746 -83.308556,-35.94683 -84.928106,-37.61767 30.992955,12.08712 63.908104,26.94366 95.713247,36.62367 7.8232942,3.44138 10.6288297,3.21947 21.8546029,6.52025 6.5613401,1.32574 7.5059161,1.80973 19.6228161,3.56925 9.52888,1.38371 9.82062,-0.23773 11.91026,-1.83474 1.86273,-1.42359 -12.279678,-13.08191 -43.6287522,-31.42937 -4.1723248,-2.44191 42.9701722,21.59802 50.3306222,26.58208 9.24882,6.26274 13.45666,11.29089 13.10211,13.7651 -0.24903,1.73789 -3.20465,1.74626 -8.3766,1.92344 -3.32842,0.11402 3.017965,0.48987 -3.557125,-0.14574 z M -122.00994,81.408702 c -22.23647,-5.960429 -18.99816,-4.551701 -28.28169,-6.335861 -10.91857,-2.098391 -19.23486,-3.082755 -22.50357,-1.110748 -1.92649,1.162248 -4.16561,4.811985 7.05687,12.186195 33.79919,15.781042 35.06079,17.045052 24.26875,13.05825 -10.79204,-3.986805 -33.63772,-13.224431 -45.54266,-21.793926 -3.53028,-4.633975 -7.4632,-10.07054 -3.46033,-12.803735 5.41052,-3.694351 31.27129,0.321457 48.08467,4.449028 11.52143,2.828433 39.16454,12.019618 62.090168,22.654975 21.704808,10.06901 27.172496,13.96837 32.277657,17.84187 C -67.181307,98.845551 -99.96427,87.369575 -122.00994,81.408702 Z"
       id="path3582-5-8"
       inkscape:connector-curvature="0"
       sodipodi:nodetypes="scccccssssssscsscscssscc" />
  </g>
</svg>
